<?xml version="1.0" standalone="no"?>
<!DOCTYPE svg PUBLIC "-//W3C//DTD SVG 20010904//EN"
 "http://www.w3.org/TR/2001/REC-SVG-20010904/DTD/svg10.dtd">
<svg version="1.0" xmlns="http://www.w3.org/2000/svg"
 width="500.000000pt" height="500.000000pt" viewBox="0 0 500.000000 500.000000"
 preserveAspectRatio="xMidYMid meet">
<metadata>
Created by potrace 1.14, written by Peter Selinger 2001-2017
</metadata>
<g transform="translate(0.000000,500.000000) scale(0.100000,-0.100000)"
fill="#000000" stroke="none">
<path d="M2336 4800 c-77 -23 -101 -99 -47 -149 15 -14 53 -34 84 -44 30 -10
58 -25 61 -33 17 -45 -68 -62 -101 -20 -15 18 -26 23 -46 19 -36 -7 -35 -32 4
-69 27 -26 37 -29 95 -29 61 0 68 2 95 33 54 60 28 116 -75 155 -70 27 -91 51
-62 73 27 19 52 18 76 -6 23 -23 80 -28 80 -6 0 25 -41 65 -78 76 -42 11 -47
11 -86 0z"/>
<path d="M2790 4626 c0 -91 3 -167 8 -169 4 -2 18 -7 32 -10 24 -6 29 0 72 86
l47 92 1 -60 c1 -33 5 -80 8 -105 6 -39 10 -45 37 -50 l31 -7 68 149 c38 81
67 150 64 153 -2 3 -18 7 -34 10 -28 6 -30 4 -63 -77 -19 -46 -38 -87 -43 -92
-4 -6 -8 30 -8 81 0 110 -4 123 -40 123 -25 0 -31 -8 -68 -90 -23 -49 -45 -90
-48 -90 -4 0 -4 45 0 100 l7 100 -26 10 c-15 6 -31 10 -36 10 -5 0 -9 -69 -9
-164z"/>
<path d="M1987 4748 c-37 -8 -47 -14 -43 -27 3 -9 17 -81 32 -159 l27 -144 46
7 c71 10 128 39 151 77 28 46 27 130 -3 182 -39 69 -99 87 -210 64z m123 -58
c23 -12 40 -61 40 -116 0 -34 -5 -47 -26 -63 -49 -39 -60 -30 -78 67 -10 48
-19 95 -22 105 -4 14 1 17 31 17 20 0 45 -4 55 -10z"/>
<path d="M1830 4708 c-13 -5 -26 -10 -27 -12 -2 -2 12 -47 32 -101 19 -54 29
-93 23 -88 -7 5 -47 36 -88 69 -96 77 -93 76 -127 63 l-30 -10 51 -142 c63
-175 59 -169 94 -155 15 7 28 12 29 13 1 0 -13 42 -31 93 -19 51 -31 92 -27
92 3 -1 44 -32 91 -71 70 -57 89 -69 110 -64 14 4 29 10 34 15 8 8 -86 287
-102 301 -4 4 -18 3 -32 -3z"/>
<path d="M3220 4677 c0 -2 -24 -69 -54 -150 -55 -152 -56 -157 -10 -171 19 -6
26 5 73 136 28 79 51 148 51 154 0 6 -11 16 -25 22 -27 12 -35 14 -35 9z"/>
<path d="M3329 4619 c-13 -25 -1 -42 41 -59 17 -7 30 -14 30 -16 0 -3 -22 -48
-49 -102 -68 -136 -68 -138 -32 -156 l30 -16 57 120 c31 66 61 120 66 120 5 0
27 -9 48 -20 l40 -20 6 26 c4 14 3 29 -2 33 -5 5 -57 31 -116 59 -104 49 -108
50 -119 31z"/>
<path d="M1420 4532 l-21 -17 22 -160 c12 -88 25 -164 29 -168 4 -4 19 -2 35
5 24 11 27 16 22 50 -5 38 -4 39 45 64 l50 25 24 -22 c21 -19 26 -20 54 -9 16
7 30 16 30 20 0 8 -254 230 -263 230 -3 0 -15 -8 -27 -18z m130 -153 c0 -5
-13 -15 -30 -24 l-29 -15 -6 37 c-4 21 -9 46 -12 57 -4 15 4 11 36 -14 23 -18
41 -37 41 -41z"/>
<path d="M3541 4358 l-90 -131 24 -19 c13 -10 27 -18 32 -18 4 0 24 25 43 55
l36 55 52 -35 52 -35 -37 -55 c-35 -54 -35 -56 -18 -75 10 -11 23 -20 30 -20
6 0 51 59 100 131 l89 131 -24 19 c-14 10 -28 19 -31 19 -4 0 -21 -22 -39 -50
-18 -27 -35 -50 -37 -50 -16 0 -93 57 -93 68 0 7 14 34 31 59 l32 46 -24 18
c-13 10 -27 19 -31 19 -4 0 -47 -59 -97 -132z"/>
<path d="M1157 4365 c-54 -40 -100 -75 -102 -77 -2 -2 4 -14 14 -27 l18 -24
37 28 c44 33 41 35 127 -84 35 -50 71 -91 80 -91 9 0 23 8 32 18 14 16 10 24
-59 116 -41 55 -74 105 -74 111 0 7 16 23 35 37 33 23 34 25 19 46 -8 12 -18
22 -22 21 -4 0 -51 -33 -105 -74z"/>
<path d="M955 4191 c-84 -51 -93 -159 -17 -190 25 -10 38 -9 88 9 85 31 99 33
113 16 27 -32 -28 -82 -78 -71 -37 8 -73 -28 -50 -50 26 -26 62 -27 109 -3 80
41 112 118 70 171 -31 39 -68 42 -145 12 -71 -29 -95 -27 -95 4 0 31 38 61 69
55 19 -4 32 1 46 16 19 22 19 22 0 36 -26 19 -74 17 -110 -5z"/>
<path d="M3911 4122 c-91 -86 -91 -87 -91 -136 0 -44 4 -53 44 -92 73 -73 115
-62 239 63 l78 79 -26 24 -26 24 -82 -81 c-45 -44 -90 -83 -100 -87 -22 -7
-67 34 -67 61 0 9 39 54 87 99 89 83 96 101 55 123 -17 9 -32 -1 -111 -77z"/>
<path d="M4100 3880 c-69 -50 -125 -94 -125 -98 0 -4 8 -18 17 -31 l17 -24 40
27 c37 26 78 32 74 10 -1 -5 -11 -36 -23 -69 l-22 -60 38 -62 c20 -35 40 -63
44 -63 5 0 27 11 51 24 43 25 43 25 57 5 13 -19 11 -26 -23 -75 l-38 -55 24
-52 c31 -70 36 -75 71 -79 26 -3 33 -10 48 -48 l18 -45 -25 -27 c-20 -21 -24
-32 -18 -57 4 -17 10 -31 15 -31 16 0 260 212 260 227 0 8 -5 23 -10 34 -10
17 -23 19 -165 19 -84 0 -156 4 -159 9 -4 7 17 42 59 98 1 2 15 -3 33 -9 26
-10 37 -9 66 5 78 37 83 91 20 201 l-38 66 -41 -24 c-72 -42 -226 -119 -229
-115 -2 2 12 45 31 95 l35 91 89 -5 c49 -2 89 -2 89 2 0 4 -10 20 -22 36 -21
29 -25 30 -99 30 -43 0 -80 4 -83 8 -2 4 18 23 45 41 27 19 49 36 49 38 0 8
-33 53 -39 53 -4 0 -63 -41 -131 -90z m320 -321 c0 -29 -23 -49 -54 -49 -9 0
-24 17 -35 37 l-19 38 37 21 c36 21 36 21 54 2 9 -11 17 -33 17 -49z m45 -304
c-22 -19 -43 -35 -46 -35 -4 0 -10 12 -13 27 -9 33 5 43 59 42 l40 0 -40 -34z"/>
<path d="M688 3864 c-15 -8 -46 -41 -68 -73 l-39 -59 127 -87 c70 -48 132 -89
137 -91 14 -5 74 86 86 130 32 116 -134 240 -243 180z m130 -76 c18 -11 39
-33 48 -49 13 -27 13 -33 -2 -64 -9 -19 -18 -35 -21 -35 -8 0 -158 103 -166
114 -4 6 6 23 24 39 35 32 59 31 117 -5z"/>
<path d="M2263 3770 c-165 -54 -253 -226 -224 -436 38 -273 243 -577 509 -755
l77 -51 8 28 c4 16 32 220 63 454 61 470 61 456 4 576 -34 71 -109 146 -177
176 -68 30 -182 34 -260 8z"/>
<path d="M758 3496 l-32 -64 -119 59 c-65 33 -120 59 -122 57 -6 -7 -25 -47
-25 -52 0 -6 274 -146 285 -146 5 0 87 156 93 176 1 6 -9 16 -23 22 -25 11
-26 10 -57 -52z"/>
<path d="M422 3371 c-31 -33 -79 -158 -66 -171 11 -11 295 -112 300 -107 2 2
6 17 10 33 5 28 3 31 -45 51 -28 12 -51 26 -51 31 0 23 32 40 89 46 56 6 60 9
66 37 4 17 4 33 1 36 -3 3 -33 1 -67 -4 l-61 -10 -19 32 c-36 61 -113 74 -157
26z m89 -51 c22 -12 26 -57 6 -84 -9 -13 -20 -16 -39 -11 -45 11 -54 30 -35
70 17 36 34 42 68 25z"/>
<path d="M4482 3083 l-143 -35 7 -31 c3 -18 7 -33 9 -35 3 -3 309 68 314 74 9
9 -15 59 -29 61 -8 0 -79 -15 -158 -34z"/>
<path d="M388 3098 c-110 -29 -129 -173 -31 -241 59 -42 153 -49 203 -15 77
52 89 142 29 204 -47 49 -132 70 -201 52z m149 -94 c66 -49 20 -121 -69 -111
-96 12 -139 59 -103 113 16 25 21 26 81 22 44 -3 72 -10 91 -24z"/>
<path d="M4535 2960 c-71 -10 -138 -19 -148 -19 -14 -1 -18 -8 -15 -33 3 -37
10 -39 126 -25 34 5 62 4 62 0 0 -4 -39 -37 -85 -73 -84 -65 -95 -82 -76 -119
9 -17 16 -17 148 0 76 10 146 18 156 19 21 0 24 58 3 66 -7 3 -51 0 -96 -6
-45 -6 -84 -10 -86 -7 -2 2 37 36 86 75 50 40 90 78 90 85 0 27 -13 57 -24 56
-6 -1 -69 -10 -141 -19z"/>
<path d="M3545 2876 c-36 -54 -46 -116 -44 -277 l1 -156 -53 -128 c-55 -135
-100 -204 -164 -255 -44 -35 -117 -75 -177 -96 -35 -12 -38 -12 -38 4 0 23 50
103 105 167 47 55 121 167 154 232 34 69 24 118 -29 135 -31 11 -88 -25 -175
-111 -49 -48 -135 -119 -190 -156 -217 -148 -330 -266 -395 -409 -99 -217 -94
-472 13 -697 39 -81 124 -216 149 -237 14 -11 18 -7 32 36 60 181 270 435 551
667 227 188 268 238 325 392 71 199 93 351 80 565 -16 245 -44 339 -103 346
-19 2 -30 -4 -42 -22z"/>
<path d="M260 2770 c0 -36 11 -41 118 -60 40 -8 75 -16 77 -20 2 -4 -33 -15
-78 -24 -120 -25 -117 -24 -117 -56 0 -32 -9 -27 133 -64 33 -8 61 -17 64 -19
2 -3 -27 -10 -64 -16 -145 -25 -133 -20 -133 -57 0 -19 4 -34 10 -34 16 0 304
61 312 66 17 11 5 74 -15 74 -25 0 -167 43 -162 49 4 3 45 15 93 26 l87 20 0
35 0 35 -145 37 c-183 46 -180 46 -180 8z"/>
<path d="M4396 2540 c-4 -55 -4 -105 -1 -110 3 -6 17 -10 31 -10 23 0 24 2 24
76 l0 75 43 -3 42 -3 0 -60 c0 -58 1 -60 28 -63 l27 -3 0 65 0 66 35 0 c39 0
38 1 35 -84 -2 -60 6 -76 43 -76 15 0 17 12 17 115 l0 115 -159 0 -158 0 -7
-100z"/>
<path d="M435 2035 c-48 -17 -65 -39 -64 -79 1 -32 3 -29 13 16 7 32 31 47
101 64 39 10 43 12 20 13 -16 0 -48 -6 -70 -14z"/>
<path d="M4410 2030 c-13 -13 -19 -32 -18 -52 l1 -33 4 31 c5 42 29 62 78 67
l40 4 -42 1 c-31 2 -49 -4 -63 -18z"/>
<path d="M652 1940 c0 -14 2 -19 5 -12 2 6 2 18 0 25 -3 6 -5 1 -5 -13z"/>
<path d="M4658 1924 c-11 -48 -48 -84 -103 -100 l-50 -14 43 5 c24 3 54 12 67
21 27 18 58 77 53 102 -2 10 -6 5 -10 -14z"/>
<path d="M635 1900 c-3 -5 -1 -10 4 -10 6 0 11 5 11 10 0 6 -2 10 -4 10 -3 0
-8 -4 -11 -10z"/>
<path d="M370 1850 c-13 -9 -13 -10 0 -10 8 0 22 5 30 10 13 9 13 10 0 10 -8
0 -22 -5 -30 -10z"/>
<path d="M4476 1805 c-3 -9 -6 -22 -5 -28 0 -7 5 -1 10 12 5 13 8 26 5 28 -2
2 -6 -3 -10 -12z"/>
<path d="M600 1775 c-16 -9 -19 -14 -9 -15 8 0 24 7 35 15 24 18 7 19 -26 0z"/>
<path d="M465 1725 c-16 -7 -23 -14 -15 -14 8 0 29 6 45 14 17 7 23 14 15 14
-8 0 -28 -6 -45 -14z"/>
<path d="M722 1699 c-2 -40 -24 -66 -68 -79 l-29 -8 27 -1 c15 -1 39 9 53 22
22 19 26 29 22 62 l-4 40 -1 -36z"/>
<path d="M4596 1705 c-3 -9 -6 -22 -5 -28 0 -7 5 -1 10 12 5 13 8 26 5 28 -2
2 -6 -3 -10 -12z"/>
<path d="M590 1629 c0 -26 -24 -49 -65 -64 -29 -10 -34 -14 -17 -15 36 0 81
28 88 56 4 14 4 28 0 31 -3 4 -6 0 -6 -8z"/>
<path d="M4241 1574 c-12 -15 -20 -36 -20 -48 l2 -21 4 21 c6 30 43 62 78 67
28 4 27 4 -7 6 -29 1 -41 -5 -57 -25z"/>
<path d="M668 1462 c-48 -26 -88 -51 -88 -55 0 -9 166 76 185 94 19 19 -12 6
-97 -39z"/>
<path d="M4482 1446 c-19 -52 -65 -93 -113 -101 -22 -4 -38 -9 -35 -12 12 -13
79 10 110 37 34 30 61 80 54 100 -2 6 -9 -5 -16 -24z"/>
<path d="M560 1360 c-8 -5 -12 -11 -9 -14 3 -3 14 1 25 9 21 16 8 20 -16 5z"/>
<path d="M757 1258 c-59 -39 -105 -73 -103 -76 5 -5 186 108 216 135 34 31
-13 6 -113 -59z"/>
<path d="M946 1274 c-11 -7 -17 -16 -15 -19 3 -3 14 2 25 9 10 8 17 17 14 19
-3 3 -14 -1 -24 -9z"/>
<path d="M4157 1190 c-21 -27 -34 -50 -29 -50 4 0 25 23 45 50 21 28 34 50 29
50 -4 0 -25 -22 -45 -50z"/>
<path d="M4326 1183 c-12 -16 -14 -24 -6 -21 16 5 46 48 34 48 -5 0 -18 -12
-28 -27z"/>
<path d="M3863 1187 c-4 -8 -15 -17 -23 -20 -13 -5 -12 -6 1 -6 18 -1 45 26
36 35 -3 3 -9 -1 -14 -9z"/>
<path d="M3926 1125 c-9 -26 -7 -32 5 -12 6 10 9 21 6 23 -2 3 -7 -2 -11 -11z"/>
<path d="M3786 1109 c-11 -11 -15 -19 -10 -19 16 0 37 17 33 27 -2 6 -13 2
-23 -8z"/>
<path d="M1019 1073 l-34 -38 38 34 c34 33 42 41 34 41 -2 0 -19 -17 -38 -37z"/>
<path d="M1161 1032 c-1 -35 -19 -61 -54 -82 -19 -12 -25 -20 -16 -20 36 0 89
78 76 112 -3 7 -6 3 -6 -10z"/>
<path d="M3840 1041 c0 -5 9 -7 20 -4 11 3 20 7 20 9 0 2 -9 4 -20 4 -11 0
-20 -4 -20 -9z"/>
<path d="M4217 1032 c-19 -20 -23 -37 -7 -27 10 6 33 45 27 45 -2 0 -11 -8
-20 -18z"/>
<path d="M895 960 c-21 -22 -35 -40 -29 -40 5 0 28 18 49 40 21 22 35 40 29
40 -5 0 -28 -18 -49 -40z"/>
<path d="M4085 890 c-27 -27 -47 -52 -44 -55 3 -2 30 20 59 50 30 30 50 55 44
55 -5 0 -32 -22 -59 -50z"/>
<path d="M1296 744 c-31 -92 -52 -164 -47 -158 12 14 114 314 108 320 -3 3
-30 -70 -61 -162z"/>
<path d="M1222 853 c-29 -20 -50 -38 -47 -41 5 -6 79 43 96 64 18 22 7 17 -49
-23z"/>
<path d="M3840 770 c-25 -22 -40 -40 -35 -40 6 0 30 18 55 40 25 21 41 39 35
39 -5 0 -30 -17 -55 -39z"/>
<path d="M3984 786 c-16 -14 -24 -25 -19 -25 14 0 59 38 53 45 -3 3 -19 -6
-34 -20z"/>
<path d="M1080 755 c-19 -14 -28 -25 -20 -25 8 0 29 11 45 25 39 32 20 31 -25
0z"/>
<path d="M3484 755 c-24 -18 -19 -18 31 0 33 12 36 14 14 15 -14 0 -34 -7 -45
-15z"/>
<path d="M3331 644 c-12 -48 -20 -88 -18 -91 3 -2 14 35 26 83 12 48 20 88 18
91 -3 2 -14 -35 -26 -83z"/>
<path d="M3628 692 c-10 -21 -31 -45 -48 -55 -16 -10 -30 -23 -30 -28 0 -12
46 19 72 47 15 17 36 74 27 74 -2 0 -12 -17 -21 -38z"/>
<path d="M1612 660 c-7 -12 -23 -25 -35 -30 -21 -9 -22 -9 -1 -9 23 -1 58 32
52 49 -1 5 -9 1 -16 -10z"/>
<path d="M3799 634 c-21 -24 -22 -26 -3 -16 25 13 50 42 37 42 -5 0 -20 -12
-34 -26z"/>
<path d="M1735 598 c-33 -26 -55 -76 -54 -120 1 -30 2 -29 10 11 11 55 31 87
72 111 19 12 25 20 16 20 -9 0 -29 -10 -44 -22z"/>
<path d="M3101 604 c0 -11 3 -14 6 -6 3 7 2 16 -1 19 -3 4 -6 -2 -5 -13z"/>
<path d="M3076 468 c-24 -153 -36 -177 -106 -206 -31 -13 -42 -21 -25 -17 52
10 83 26 99 50 16 25 60 244 54 273 -2 9 -12 -36 -22 -100z"/>
<path d="M2102 535 c0 -16 2 -22 5 -12 2 9 2 23 0 30 -3 6 -5 -1 -5 -18z"/>
<path d="M1931 520 c-2 -49 -44 -135 -77 -157 -15 -10 -51 -21 -78 -24 l-51
-6 48 -2 c59 -1 99 18 125 61 27 44 45 108 39 138 -3 19 -5 17 -6 -10z"/>
<path d="M1543 510 c-7 -10 -28 -23 -48 -30 -20 -7 -34 -14 -31 -17 10 -10 77
19 87 39 14 26 7 33 -8 8z"/>
<path d="M2342 485 c0 -16 2 -22 5 -12 2 9 2 23 0 30 -3 6 -5 -1 -5 -18z"/>
<path d="M3570 490 c-14 -11 -20 -20 -15 -20 6 0 21 9 35 20 14 11 21 20 15
20 -5 0 -21 -9 -35 -20z"/>
<path d="M2043 455 c0 -22 2 -30 4 -17 2 12 2 30 0 40 -3 9 -5 -1 -4 -23z"/>
<path d="M2538 478 c-16 -5 -28 -14 -28 -19 0 -5 10 -4 23 3 12 7 42 15 67 19
l45 6 -40 1 c-22 0 -52 -4 -67 -10z"/>
<path d="M2112 460 c0 -14 2 -19 5 -12 2 6 2 18 0 25 -3 6 -5 1 -5 -13z"/>
<path d="M2717 453 c-4 -20 -16 -38 -34 -48 -19 -10 -22 -15 -9 -13 25 4 59
50 54 74 -3 13 -6 9 -11 -13z"/>
<path d="M2215 362 c-28 -53 -58 -104 -67 -114 -15 -15 -15 -18 -3 -18 13 0
132 217 123 225 -2 2 -26 -40 -53 -93z"/>
<path d="M2332 425 c0 -16 2 -22 5 -12 2 9 2 23 0 30 -3 6 -5 -1 -5 -18z"/>
<path d="M3435 425 c-23 -11 -25 -14 -10 -14 11 0 31 6 45 14 32 18 5 18 -35
0z"/>
<path d="M2032 385 c0 -16 2 -22 5 -12 2 9 2 23 0 30 -3 6 -5 -1 -5 -18z"/>
<path d="M2122 390 c0 -14 2 -19 5 -12 2 6 2 18 0 25 -3 6 -5 1 -5 -13z"/>
<path d="M2322 365 c0 -16 2 -22 5 -12 2 9 2 23 0 30 -3 6 -5 -1 -5 -18z"/>
<path d="M3275 355 c-16 -7 -23 -14 -14 -14 8 -1 24 6 35 14 24 18 18 18 -21
0z"/>
<path d="M2563 353 c9 -2 25 -2 35 0 9 3 1 5 -18 5 -19 0 -27 -2 -17 -5z"/>
<path d="M2022 325 c0 -16 2 -22 5 -12 2 9 2 23 0 30 -3 6 -5 -1 -5 -18z"/>
<path d="M2312 305 c0 -16 2 -22 5 -12 2 9 2 23 0 30 -3 6 -5 -1 -5 -18z"/>
<path d="M2735 290 c-15 -49 -51 -71 -136 -80 l-74 -9 77 3 c52 2 85 9 103 20
27 18 48 59 43 84 -2 9 -7 0 -13 -18z"/>
<path d="M2012 270 c0 -14 2 -19 5 -12 2 6 2 18 0 25 -3 6 -5 1 -5 -13z"/>
<path d="M2299 242 c-3 -20 -2 -29 4 -23 5 5 7 19 5 32 -3 20 -5 19 -9 -9z"/>
<path d="M2258 213 c7 -3 16 -2 19 1 4 3 -2 6 -13 5 -11 0 -14 -3 -6 -6z"/>
</g>
</svg>
